<?xml version="1.0" standalone="no"?><!DOCTYPE svg PUBLIC "-//W3C//DTD SVG 1.1//EN" "http://www.w3.org/Graphics/SVG/1.1/DTD/svg11.dtd"><svg t="1551232013230" class="icon" style="" viewBox="0 0 1024 1024" version="1.1" xmlns="http://www.w3.org/2000/svg" p-id="4785" xmlns:xlink="http://www.w3.org/1999/xlink" width="20" height="20"><defs><style type="text/css"></style></defs><path d="M764.256 194.752l-90.24 90.624C734.496 345.888 768 426.368 768 512c0 176.512-143.488 320-320 320l0-64-128 128 128 128 0-64c247.008 0 448-200.992 448-448C896 392.128 849.248 279.488 764.256 194.752zM576 128l-128-128 0 64C200.992 64 0 264.992 0 512c0 119.872 46.752 232.512 131.744 317.248l90.24-90.624C161.504 678.112 128 597.632 128 512 128 335.488 271.488 192 448 192l0 64L576 128z" fill="#969696" p-id="4786"></path></svg>